<?xml version="1.0" encoding="UTF-8"?>
<svg id="Layer_1" xmlns="http://www.w3.org/2000/svg" version="1.1" viewBox="0 0 241.9 81.3">
  <!-- Generator: Adobe Illustrator 29.0.1, SVG Export Plug-In . SVG Version: 2.1.0 Build 192)  -->
  <defs>
    <style>
      .st0 {
        fill: #231f20;
      }

      .st1 {
        fill: #fff;
      }
    </style>
  </defs>
  <path class="st0" d="M25.4,17.3v20.9h-6.3v-20.9h-7.4v-5.4h21.2v5.4h-7.4,0Z"/>
  <path class="st0" d="M52.3,38.1v-11h-10.2v11h-6.3V11.9h6.3v9.9h10.2v-9.9h6.3v26.3h-6.3Z"/>
  <path class="st0" d="M78.1,38.1l-5.7-10.4h-2.1v10.4h-6.2V11.9h10c5,0,10.1,1.9,10.1,7.9s-2.1,6-5.5,7.1l6.9,11.2h-7.4ZM73.6,17h-3.4v6.1h3c2,0,4.6-.5,4.6-3.2s-2.3-2.9-4.2-2.9h0Z"/>
  <path class="st0" d="M88.7,38.1V11.9h17.7v5.4h-11.5v4.9h10.9v5.1h-10.9v5.5h12.2v5.4h-18.3Z"/>
  <path class="st0" d="M129,38.1l-2-5.2h-10.2l-1.9,5.2h-6.9l11-26.3h6.2l10.9,26.3h-7,0ZM121.9,18.9l-3.3,9h6.6l-3.3-9Z"/>
  <path class="st0" d="M147.2,17.3v20.9h-6.3v-20.9h-7.4v-5.4h21.2v5.4h-7.4,0Z"/>
  <path class="st1" d="M79.5,75h-4.7l11.8-34.5h4.7l-11.8,34.5Z"/>
  <path class="st1" d="M93.6,75h-4.7l11.8-34.5h4.7l-11.8,34.5h0Z"/>
  <path class="st1" d="M120,50.5c-1.1-1.4-3-2.3-4.7-2.3s-3.7.6-3.7,2.6,1.6,2.3,4,3.1c3.6,1.1,8.2,2.7,8.2,7.9s-4.9,8.8-10.1,8.8-7.5-1.4-9.8-3.8l4.2-4.2c1.3,1.6,3.6,2.8,5.7,2.8s3.6-.7,3.6-2.9-2-2.6-5.5-3.7c-3.3-1.1-6.7-2.8-6.7-7.5s5.3-8.2,10.2-8.2,6.3,1.1,8.6,3.2l-4,4.3h0Z"/>
  <path class="st1" d="M144.7,70v-11h-10.2v11h-6.3v-26.3h6.3v9.9h10.2v-9.9h6.3v26.3h-6.3Z"/>
  <path class="st1" d="M174.2,70l-2-5.2h-10.2l-1.9,5.2h-6.9l11-26.3h6.2l10.9,26.3h-7.1,0ZM167.2,50.7l-3.3,9h6.6l-3.3-9h0Z"/>
  <path class="st1" d="M193.3,70h-9.8v-26.3h9.5c7.5,0,15,3.1,15,13.1s-7.5,13.2-14.7,13.2h0ZM192.8,49.1h-3.2v15.4h3c4.5,0,8.7-1.9,8.7-7.7s-4.2-7.6-8.6-7.6h0Z"/>
  <path class="st1" d="M212.2,70v-26.3h17.7v5.4h-11.5v4.9h10.9v5.1h-10.9v5.5h12.2v5.4h-18.3Z"/>
</svg>